<?xml version="1.0" standalone="no"?>
<svg version="1.0" xmlns="http://www.w3.org/2000/svg"
 width="500.000000pt" height="500.000000pt" viewBox="0 0 500.000000 500.000000"
 preserveAspectRatio="xMidYMid meet">

<defs>
  <clipPath id="c">
    <circle cx="250" cy="250" r="250"/>
  </clipPath>
</defs>

<circle cx="250" cy="250" r="250" fill="#004c88"/>

<g transform="translate(0.000000,500.000000) scale(0.100000,-0.100000)"
fill="white" stroke="none" clip-path="url(#c)">
<path d="M2330 4794 c-579 -55 -1063 -277 -1455 -669 -295 -294 -500 -654
-601 -1051 -52 -206 -68 -340 -68 -569 0 -229 16 -363 68 -569 101 -397 306
-757 601 -1051 294 -295 654 -500 1051 -601 206 -52 340 -68 569 -68 229 0
363 16 569 68 397 101 757 306 1051 601 295 294 500 654 601 1051 52 206 68
340 68 569 0 229 -16 363 -68 569 -101 397 -306 757 -601 1051 -294 295 -654
500 -1051 601 -72 18 -182 40 -245 49 -112 16 -401 27 -489 19z m265 -86 c29
-3 30 -4 30 -58 0 -49 -2 -55 -22 -58 -17 -3 -24 3 -29 23 -8 31 -31 45 -75
45 -34 0 -69 -24 -69 -46 0 -20 38 -40 102 -53 77 -16 108 -46 108 -105 0 -37
-5 -48 -30 -69 -37 -32 -79 -41 -138 -31 -26 5 -60 9 -77 9 -30 0 -30 1 -30
55 0 47 3 55 20 58 13 2 26 -7 37 -27 26 -46 113 -55 152 -15 24 23 3 51 -47
64 -23 5 -60 15 -82 22 -84 27 -98 127 -25 176 36 24 36 24 175 10z m445 -67
l145 -38 -2 -31 c-5 -61 -27 -107 -52 -110 -23 -4 -24 -2 -18 46 6 50 5 51
-24 57 -17 4 -32 5 -33 3 -5 -6 -57 -220 -54 -222 2 -1 17 -6 33 -12 39 -12
42 -48 4 -52 -33 -4 -170 34 -180 49 -16 26 3 41 42 36 38 -5 39 -5 49 36 6
23 20 73 30 112 20 74 17 85 -27 85 -16 0 -23 -8 -30 -37 -5 -24 -15 -39 -27
-41 -35 -7 -39 13 -21 87 9 39 18 71 19 71 0 -1 66 -18 146 -39z m-952 2 c3
-19 -4 -24 -41 -34 l-45 -11 20 -76 c10 -43 23 -93 29 -113 l9 -36 50 5 c46 4
50 3 50 -16 0 -28 -15 -35 -133 -63 -76 -18 -100 -20 -109 -11 -18 18 2 45 43
56 19 5 35 10 37 11 1 1 -10 52 -25 114 l-27 111 -48 -6 c-39 -5 -49 -4 -54
10 -10 26 6 36 102 61 108 29 138 28 142 -2z m-471 -152 c-3 -17 13 -72 48
-161 52 -134 52 -135 31 -147 -32 -19 -37 -17 -103 43 -35 31 -63 51 -63 45 0
-9 12 -71 26 -138 3 -17 -3 -26 -26 -38 l-29 -15 -39 52 c-21 29 -58 82 -82
117 -25 35 -55 67 -67 72 -40 15 -29 46 27 74 64 33 90 33 90 1 0 -16 -7 -27
-20 -31 -11 -3 -20 -11 -20 -17 0 -10 81 -130 86 -126 1 2 -2 23 -6 48 -15 73
-12 89 14 102 22 9 30 6 73 -30 26 -23 49 -40 50 -38 1 1 -9 33 -23 70 -21 54
-30 66 -43 60 -35 -15 -56 -10 -56 14 0 19 12 30 54 52 61 33 85 30 78 -9z
m1934 -42 l129 -70 -27 -50 c-21 -36 -34 -49 -50 -49 -17 0 -23 6 -23 23 0 12
5 29 10 37 7 12 -3 22 -48 47 -31 18 -60 33 -63 33 -3 0 -14 -16 -25 -36 -19
-35 -19 -36 0 -50 17 -12 22 -12 37 2 21 19 49 12 49 -11 0 -26 -49 -115 -64
-115 -20 0 -37 25 -30 43 6 16 -29 42 -45 33 -15 -10 -34 -67 -25 -75 5 -4 35
-22 67 -40 l57 -31 12 25 c7 16 19 25 35 25 31 0 30 -30 -2 -86 l-25 -42 -132
73 c-129 71 -157 97 -127 116 8 4 23 6 34 3 17 -4 29 12 74 97 47 89 52 103
37 111 -9 5 -16 15 -16 21 0 12 19 37 28 37 2 0 62 -32 133 -71z m-756 -163
c374 -64 691 -226 964 -491 286 -278 454 -597 528 -1005 21 -117 24 -436 5
-555 -47 -289 -159 -563 -325 -795 -82 -114 -261 -296 -377 -383 -239 -180
-523 -300 -825 -349 -103 -16 -427 -16 -530 0 -302 49 -586 168 -825 348 -115
87 -293 268 -376 384 -166 230 -279 505 -326 795 -19 119 -16 438 5 555 74
408 242 727 528 1005 128 125 238 207 384 288 181 101 417 181 610 206 44 6
94 13 110 15 62 9 363 -3 450 -18z m-1597 -163 c-5 -29 -38 -27 -69 3 l-29 28
-22 -21 -21 -22 60 -68 c96 -108 95 -107 126 -83 28 22 57 17 57 -10 0 -19
-126 -140 -146 -140 -6 0 -17 7 -24 15 -11 13 -9 20 13 43 l26 27 -78 86 c-74
81 -78 85 -99 71 -27 -18 -28 -34 -2 -57 26 -23 27 -65 2 -65 -10 0 -40 22
-66 49 l-49 49 64 59 c35 32 86 79 114 105 l50 48 48 -50 c29 -29 47 -57 45
-67z m2762 35 c103 -91 123 -149 74 -207 -21 -26 -33 -31 -69 -31 l-43 0 -4
-57 c-2 -32 1 -65 6 -74 23 -39 -20 -65 -55 -33 -15 13 -16 27 -12 89 7 87 1
116 -28 133 -18 12 -24 11 -44 -8 -22 -21 -23 -24 -8 -46 17 -27 11 -54 -12
-54 -9 0 -39 22 -67 49 -38 35 -49 53 -44 66 5 13 13 16 35 12 24 -5 35 2 87
56 94 98 99 104 84 122 -15 18 -6 45 15 45 9 0 47 -28 85 -62z m-3240 -537
c26 -25 34 -28 74 -24 41 5 48 2 77 -26 27 -28 31 -37 26 -70 -6 -50 -108
-235 -132 -239 -22 -5 -36 16 -29 43 4 17 -12 29 -97 74 -89 47 -103 51 -111
37 -11 -20 -32 -21 -48 -1 -10 12 -3 32 41 111 56 101 80 123 137 124 24 0 42
-8 62 -29z m3835 -308 c78 -192 71 -275 -25 -304 -35 -11 -43 -9 -83 15 -36
20 -49 36 -63 73 -23 63 -26 66 -57 54 -24 -9 -26 -13 -17 -36 6 -15 10 -37
10 -51 0 -19 -5 -24 -24 -24 -21 0 -27 9 -50 78 -14 42 -26 84 -26 93 0 27 33
33 51 10 17 -20 17 -20 123 15 93 31 106 39 106 58 0 13 3 26 7 29 13 13 41 7
48 -10z m-4118 -123 c4 -13 19 -23 47 -31 149 -39 170 -48 196 -92 39 -64 15
-154 -51 -189 -43 -23 -55 -23 -167 4 -75 18 -95 20 -101 9 -11 -18 -45 -10
-49 12 -2 9 4 42 13 73 14 47 19 55 38 52 16 -2 23 -11 25 -34 3 -30 6 -32 85
-53 105 -27 121 -27 146 5 26 33 27 78 3 102 -21 21 -195 68 -200 54 -9 -27
-30 -45 -47 -38 -15 5 -17 14 -12 49 9 68 24 97 48 97 12 0 23 -8 26 -20z
m4183 -390 c22 -11 52 -38 66 -60 23 -34 26 -48 22 -93 -8 -99 -76 -157 -184
-157 -69 0 -116 21 -152 68 -39 51 -39 133 1 185 57 75 164 99 247 57z m-3991
-212 c-1 -46 -4 -117 -8 -158 -5 -66 -8 -75 -26 -75 -15 0 -21 8 -25 35 l-5
35 -117 3 -118 3 0 -29 c0 -38 -24 -60 -45 -42 -11 9 -15 34 -15 94 0 89 8
110 36 104 13 -2 20 -13 22 -34 l3 -31 111 -7 c62 -4 115 -3 120 2 5 5 8 36 6
68 l-3 59 -40 3 c-46 4 -60 14 -52 36 5 13 23 16 82 16 l75 0 -1 -82z m4063
-348 c-2 -68 -17 -95 -45 -84 -11 4 -17 18 -17 40 0 32 -2 34 -34 34 -18 0
-55 3 -82 6 l-49 5 63 -37 c58 -34 63 -39 60 -68 -3 -30 -5 -31 -73 -42 l-70
-10 73 -23 c75 -24 87 -22 94 14 4 25 43 32 51 10 9 -23 -11 -117 -29 -135
-14 -13 -17 -13 -33 7 -13 15 -58 33 -151 60 -73 21 -135 44 -137 51 -3 6 -2
23 1 36 5 21 14 25 67 31 119 14 120 16 35 60 -56 30 -76 45 -76 60 0 46 8 48
162 40 107 -5 147 -4 153 4 4 7 14 11 23 9 14 -3 17 -15 14 -68z m-4071 -71
c12 -6 31 -34 45 -62 61 -133 -5 -249 -150 -264 -70 -7 -98 0 -140 38 -40 34
-52 67 -60 160 l-6 67 49 12 c28 6 55 9 61 5 17 -11 11 -37 -15 -61 -43 -39
-28 -122 26 -150 56 -29 150 -10 183 37 30 44 11 143 -33 171 -28 17 -28 58 0
58 11 0 29 -5 40 -11z m3681 -320 c3 -30 9 -35 107 -77 93 -41 104 -44 113
-29 11 21 44 22 51 2 4 -8 -20 -73 -51 -145 -54 -124 -58 -130 -82 -124 -43
10 -85 39 -85 60 0 16 6 19 40 17 39 -2 40 -2 63 50 12 28 22 57 22 63 0 12
-42 34 -65 34 -22 0 -29 -40 -9 -54 22 -16 12 -46 -15 -46 -11 0 -40 9 -66 20
-38 16 -46 24 -43 42 2 16 11 24 30 26 17 2 30 11 33 23 4 11 5 21 3 23 -1 1
-19 9 -39 18 l-37 17 -31 -72 c-19 -41 -28 -73 -22 -75 6 -2 21 -12 33 -22 22
-18 22 -20 6 -36 -17 -18 -33 -14 -125 31 -3 2 98 230 117 265 17 32 48 26 52
-11z m-212 -404 c10 -12 10 -18 0 -30 -7 -9 -11 -18 -8 -20 2 -2 44 -36 93
-74 83 -65 91 -69 107 -54 14 13 20 13 33 3 8 -7 15 -17 15 -22 0 -17 -114
-155 -142 -172 -31 -19 -96 -21 -119 -3 -23 17 -39 52 -39 81 0 25 -2 26 -63
26 -35 0 -68 -5 -73 -10 -14 -14 -44 -2 -44 19 1 38 23 49 113 52 79 4 89 6
114 32 l28 27 -30 24 c-30 24 -30 24 -51 5 -23 -22 -54 -17 -54 9 0 21 78 122
94 122 7 0 19 -7 26 -15z m-3052 -129 c15 -8 41 -29 58 -48 87 -91 86 -180 -2
-258 -67 -59 -144 -76 -203 -46 -33 18 -86 76 -96 105 -3 12 -11 21 -16 21
-23 0 -20 33 7 61 43 45 92 32 66 -18 -14 -25 7 -73 43 -101 41 -32 93 -29
140 8 53 42 64 60 65 102 0 30 -8 45 -38 78 -41 42 -62 49 -81 27 -8 -11 -5
-19 14 -37 33 -31 34 -70 1 -70 -16 0 -38 17 -70 54 -46 54 -58 85 -33 88 6 0
17 2 22 2 6 1 24 11 39 24 33 26 47 27 84 8z m2739 -233 c4 -11 -3 -23 -20
-37 l-26 -21 71 -93 c69 -90 72 -92 94 -77 31 20 50 19 59 -2 5 -13 -4 -27
-30 -49 -62 -55 -114 -87 -130 -80 -21 8 -19 44 5 58 11 7 20 17 20 21 0 5
-31 48 -68 97 l-69 88 -52 -40 -53 -40 20 -22 c28 -31 33 -42 26 -60 -12 -30
-42 -16 -84 39 -41 53 -42 57 -24 70 10 7 62 47 114 88 95 75 135 92 147 60z
m-2406 -83 c17 -10 19 -23 19 -158 l0 -147 49 75 c48 74 48 75 29 91 -23 18
-21 52 3 57 8 1 38 -12 65 -30 55 -37 66 -71 24 -76 -36 -5 -156 -185 -135
-202 19 -16 19 -34 0 -50 -12 -10 -22 -8 -55 14 l-40 26 0 143 0 142 -45 -67
c-25 -37 -45 -71 -45 -74 0 -4 7 -15 16 -25 19 -21 12 -49 -12 -49 -28 0 -114
60 -114 80 0 19 22 32 42 25 8 -3 44 44 90 115 42 66 80 120 83 120 4 0 15 -5
26 -10z m1987 -198 c3 -18 -5 -26 -37 -40 l-40 -17 45 -105 c25 -57 47 -106
48 -108 2 -1 19 5 39 14 42 20 70 13 65 -17 -2 -15 -28 -31 -106 -65 -107 -47
-132 -49 -132 -14 0 14 12 26 38 37 20 10 38 18 40 19 2 1 -86 205 -92 211 -1
2 -19 -4 -39 -12 -43 -18 -69 -10 -65 18 2 15 28 31 103 63 55 24 107 42 115
41 8 -1 16 -12 18 -25z m-1481 -63 c97 -34 119 -49 109 -74 -6 -17 -29 -17
-82 0 -19 6 -24 -3 -57 -97 -21 -57 -37 -107 -37 -111 0 -4 18 -14 41 -23 31
-13 39 -21 37 -38 -4 -30 -43 -26 -153 15 -61 23 -91 40 -93 52 -5 24 24 32
69 20 l38 -10 31 86 c47 130 48 138 12 146 -36 8 -57 29 -48 50 8 22 34 19
133 -16z m1061 -96 c2 -14 -3 -23 -17 -28 -25 -8 -25 -10 -4 -135 13 -82 19
-100 33 -100 10 0 23 -7 30 -16 25 -29 -9 -43 -158 -66 -78 -12 -144 -19 -147
-17 -2 3 -7 31 -11 62 -6 47 -4 58 10 63 22 9 46 -13 46 -43 0 -18 4 -23 18
-19 9 3 43 8 75 12 54 6 57 8 57 34 0 43 -10 60 -35 60 -17 0 -25 -7 -27 -22
-2 -17 -10 -23 -28 -23 -22 0 -26 5 -33 53 -5 29 -6 60 -3 68 8 20 44 17 51
-5 4 -13 12 -17 30 -13 27 5 29 11 19 60 -6 30 -7 31 -55 25 -40 -5 -50 -3
-55 11 -10 27 11 40 84 53 93 15 116 13 120 -14z m-568 -11 c50 -6 55 -9 55
-32 0 -22 -5 -25 -37 -28 -40 -3 -38 4 -53 -163 l-6 -66 28 -6 c37 -7 43 -2
43 37 0 42 23 64 46 45 13 -11 15 -25 9 -79 -4 -36 -8 -66 -10 -68 -3 -4 -250
17 -283 24 -22 4 -23 8 -17 62 10 84 14 94 38 90 19 -3 22 -9 22 -50 0 -45 1
-47 32 -50 35 -4 35 -5 49 155 l6 77 -25 0 c-31 0 -58 25 -51 45 7 16 55 18
154 7z"/>
<path d="M2315 4259 c-278 -29 -556 -132 -805 -296 -160 -107 -366 -313 -473
-473 -228 -345 -333 -738 -299 -1127 27 -315 123 -586 299 -853 107 -160 313
-366 473 -473 345 -228 738 -333 1128 -299 314 27 585 123 852 299 160 107
366 313 473 473 176 267 272 538 299 853 34 389 -71 782 -299 1127 -107 160
-313 366 -473 473 -358 237 -763 339 -1175 296z m266 -765 c41 -12 66 -28 105
-68 81 -83 94 -173 40 -277 l-25 -49 42 -10 c23 -6 59 -18 80 -27 36 -16 41
-15 103 7 85 29 191 25 275 -13 l56 -25 69 24 c83 27 195 44 255 37 42 -4 47
-2 96 45 41 41 61 52 105 61 100 21 200 -29 244 -123 31 -67 30 -119 -2 -184
-77 -155 -287 -169 -379 -24 -11 17 -25 31 -31 32 -17 0 -121 -73 -199 -140
-103 -89 -171 -120 -259 -120 -39 0 -86 4 -104 9 -32 9 -33 8 -68 -47 -20 -31
-61 -85 -90 -119 -30 -33 -54 -70 -54 -81 0 -11 -16 -43 -36 -72 l-36 -52 3
-321 c2 -286 1 -326 -15 -362 -22 -51 -42 -73 -90 -97 -35 -18 -55 -20 -170
-16 -157 4 -197 19 -236 89 -25 44 -25 44 -30 384 -5 326 -6 341 -26 370 -12
17 -27 48 -34 70 -7 22 -29 58 -50 80 -50 54 -110 134 -121 163 -7 18 -14 22
-27 17 -9 -4 -52 -10 -95 -13 -117 -7 -180 22 -317 143 -73 66 -146 115 -169
115 -9 -1 -25 -15 -36 -32 -88 -138 -288 -133 -372 9 -95 162 51 360 237 322
45 -9 64 -20 105 -61 49 -49 51 -50 97 -45 57 7 191 -14 270 -42 l58 -20 57
27 c49 22 72 26 148 27 67 0 101 -5 132 -19 l42 -18 90 28 c81 25 89 30 76 44
-48 53 -60 174 -24 247 26 55 86 106 147 126 61 20 96 21 163 1z m137 -2280
c34 -24 28 -57 -20 -98 l-42 -36 42 0 c31 0 42 -4 42 -15 0 -12 -14 -15 -65
-15 -45 0 -65 4 -65 13 0 6 23 33 51 58 37 32 51 51 46 62 -8 21 -40 22 -57 2
-17 -21 -30 -19 -30 5 0 36 61 50 98 24z m168 8 c51 -34 41 -155 -14 -169 -48
-12 -86 36 -78 100 7 61 53 95 92 69z m184 -12 c29 -29 25 -43 -21 -87 l-40
-38 37 -5 c21 -3 39 -11 42 -17 3 -10 -14 -13 -62 -13 -58 0 -66 2 -66 19 0
10 10 25 23 34 12 8 35 27 50 41 24 22 27 29 17 41 -17 20 -47 19 -59 -2 -8
-15 -12 -16 -23 -5 -11 11 -9 17 11 33 30 25 66 24 91 -1z m170 -30 c0 -27 5
-50 10 -50 14 0 12 -27 -2 -34 -10 -5 -10 -7 0 -12 26 -12 12 -34 -22 -34 -38
0 -57 16 -32 26 28 11 17 24 -19 24 -45 0 -45 15 -2 80 43 67 67 67 67 0z
m-1360 5 c0 -38 -19 -48 -27 -15 -4 14 -14 20 -34 20 -22 0 -29 -5 -29 -20 0
-21 15 -27 25 -10 13 21 25 9 25 -25 0 -34 -12 -46 -25 -25 -10 17 -25 11 -25
-10 0 -16 7 -20 35 -20 28 0 35 4 35 20 0 11 7 20 15 20 10 0 15 -11 15 -35
l0 -35 -74 0 c-71 0 -106 13 -72 26 12 5 16 20 16 59 0 39 -4 54 -16 59 -33
13 0 26 67 26 l69 0 0 -35z m178 11 c6 -29 -14 -42 -34 -22 -19 20 -59 17 -59
-4 0 -8 16 -19 35 -25 50 -14 60 -23 60 -51 0 -30 -33 -45 -93 -41 -31 2 -43
8 -45 21 -6 29 14 41 34 22 20 -20 69 -18 69 3 0 8 -15 19 -35 24 -43 11 -60
24 -60 48 0 45 120 69 128 25z m180 -13 c-3 -42 -28 -59 -28 -19 0 16 -6 26
-15 26 -11 0 -15 -13 -15 -54 0 -46 3 -54 21 -59 37 -10 10 -27 -42 -27 -37 0
-49 4 -49 15 0 8 9 15 20 15 18 0 20 7 20 55 0 41 -4 55 -14 55 -8 0 -16 -10
-18 -22 -6 -41 -28 -32 -28 11 l0 41 76 0 75 0 -3 -37z m117 -113 c0 -8 -8
-16 -17 -18 -13 -2 -18 3 -18 18 0 15 5 20 18 18 9 -2 17 -10 17 -18z"/>
<path d="M2425 3441 c-118 -54 -152 -210 -67 -304 50 -56 163 -78 227 -44 104
54 139 197 69 284 -36 46 -106 83 -154 83 -19 0 -53 -9 -75 -19z"/>
<path d="M1120 3093 c-98 -50 -84 -193 20 -224 99 -30 183 77 138 175 -24 55
-101 78 -158 49z m121 -42 c21 -22 29 -39 29 -66 0 -84 -105 -127 -163 -67
-88 91 44 222 134 133z"/>
<path d="M3784 3096 c-47 -21 -74 -61 -74 -113 0 -38 6 -51 33 -78 19 -19 46
-37 61 -41 64 -16 146 52 146 120 0 44 -34 95 -75 112 -42 17 -51 17 -91 0z
m104 -31 c27 -20 41 -71 30 -110 -28 -102 -188 -76 -188 30 0 75 95 123 158
80z"/>
<path d="M2250 3031 c-30 -9 -65 -23 -78 -30 -19 -10 -34 -8 -96 13 -41 15
-89 26 -108 26 -44 0 -124 -22 -175 -49 l-43 -21 -41 20 c-48 25 -180 50 -261
50 l-58 0 0 -44 c0 -38 4 -46 23 -51 38 -12 119 -67 201 -138 44 -38 97 -78
119 -89 56 -28 138 -34 213 -14 34 9 64 16 67 16 3 0 20 -28 36 -63 18 -37 57
-92 95 -132 37 -39 67 -80 70 -97 3 -17 22 -56 42 -88 l36 -58 -4 -324 c-3
-349 -2 -354 52 -403 19 -17 39 -20 152 -23 125 -4 131 -3 168 22 60 40 64 63
61 423 l-3 312 36 58 c20 32 36 69 36 82 0 14 17 40 45 68 47 46 135 169 135
189 0 28 26 33 91 18 74 -18 161 -14 206 10 17 8 77 53 133 100 56 47 127 97
156 113 52 27 54 29 54 71 l0 42 -59 0 c-76 0 -193 -23 -255 -49 l-48 -21 -34
21 c-40 25 -125 49 -172 49 -19 0 -67 -12 -108 -26 l-74 -25 -66 26 c-88 35
-152 42 -204 21 -49 -20 -121 -20 -175 -1 -52 19 -97 18 -165 -4z m-44 -332
c13 -22 90 -49 139 -49 49 0 126 27 139 49 11 17 37 13 60 -8 49 -43 152 -54
222 -22 23 10 45 24 48 30 4 6 14 11 23 11 34 0 -31 -51 -86 -66 -68 -20 -150
-12 -206 20 l-40 23 -33 -23 c-38 -26 -114 -39 -174 -29 -69 11 -165 75 -114
75 8 0 18 -5 22 -11z m157 -175 c41 -15 75 -11 120 15 25 14 29 14 59 -4 39
-23 108 -24 142 -2 14 10 31 17 38 17 7 0 -2 -10 -21 -22 -44 -28 -126 -30
-164 -5 -26 17 -28 17 -54 0 -39 -26 -121 -23 -164 6 -19 12 -25 20 -14 16 11
-4 37 -14 58 -21z m110 -100 c33 13 41 13 74 0 32 -14 41 -14 75 -1 48 19 51
11 3 -9 -34 -14 -78 -11 -101 7 -7 6 -26 3 -48 -6 -30 -13 -44 -14 -72 -5 -18
6 -36 15 -39 20 -3 5 12 2 33 -7 35 -13 42 -13 75 1z"/>
<path d="M2830 1181 c-14 -28 -13 -64 4 -87 22 -28 50 -7 54 40 5 58 -35 90
-58 47z"/>
<path d="M3190 1150 c-9 -16 -8 -20 5 -20 8 0 15 9 15 20 0 11 -2 20 -5 20 -2
0 -9 -9 -15 -20z"/>
<path d="M3881 4076 l-32 -33 36 -32 c30 -26 44 -31 73 -29 52 4 54 34 6 87
-20 23 -39 41 -43 41 -4 0 -22 -15 -40 -34z"/>
<path d="M631 3584 c-19 -14 -67 -93 -59 -98 29 -22 55 -36 65 -36 16 0 53 72
53 104 0 35 -30 50 -59 30z"/>
<path d="M773 3525 c-20 -14 -73 -92 -73 -108 0 -11 61 -39 73 -34 17 7 69
114 65 134 -4 24 -38 27 -65 8z"/>
<path d="M4460 3196 c-38 -14 -38 -15 -26 -63 8 -33 47 -73 72 -73 39 0 55 57
33 119 -12 34 -24 37 -79 17z"/>
<path d="M4458 2744 c-32 -17 -58 -61 -58 -98 0 -33 43 -82 85 -96 77 -25 165
33 165 110 0 31 -6 44 -35 69 -29 26 -44 31 -83 31 -26 -1 -59 -7 -74 -16z"/>
<path d="M4120 1230 c-31 -43 -37 -95 -14 -108 27 -14 58 1 90 44 l28 37 -34
28 c-19 16 -37 29 -41 29 -4 0 -17 -13 -29 -30z"/>
</g>
</svg>
